# xmcd
#
# Track frame offsets: 
#        150
#        21845
#        37997
#        53975
#        68102
#        79852
#        96765
#        106812
#        121900
#        138537
#        158102
#        170940
#        198492
#        212420
#        224552
#        236690
#
# Disc length: 3323 seconds
#
# Revision: 4
# Processed by: cddbd v1.5.2PL0 Copyright (c) Steve Scherf et al.
# Submitted via: ExactAudioCopy v0.99pb5
#
DISCID=e50cf910
DTITLE=Various Artist - The Best Of Country Music CD1
DYEAR=1997
DGENRE=Country
TTITLE0=Jonny Hill - Ruf Teddybär 1-4
TTITLE1=Linda Feller - Andre Mütter Haben Auch Ein Schönes Kind
TTITLE2=Tanya Tucker - Oh What It Did To Me
TTITLE3=Tom Astor and Jordanaires - Ich Bin Kein Dichter, Kein Poet
TTITLE4=Greyhounds - Nimm Es Leicht
TTITLE5=Ben Steneker - Part Of Me
TTITLE6=Bobby Bare - West Virginia Woman
TTITLE7=Hanna and Daana - Hört Er Country, Wird Er Wach
TTITLE8=Kenny Rogers - Lucille
TTITLE9=John Brack - Borderline
TTITLE10=Dickey Lee - Liebe Die Nie Mehr Vergeht
TTITLE11=The Jackys - Going Back To Buempliz
TTITLE12=Linda Feller - Minuten Im Fieber
TTITLE13=Restless Heart - You Can Depend On Me
TTITLE14=Lucille Starr - Colinda
TTITLE15=Max Zwo - Gibt's Koane Mad'ln Zum Heiratn Mehr
EXTD=YEAR: 1997
EXTT0=
EXTT1=
EXTT2=
EXTT3=
EXTT4=
EXTT5=
EXTT6=
EXTT7=
EXTT8=
EXTT9=
EXTT10=
EXTT11=
EXTT12=
EXTT13=
EXTT14=
EXTT15=
PLAYORDER=
